<svg width="52" height="53" viewBox="0 0 52 53" fill="none" xmlns="http://www.w3.org/2000/svg">
<path d="M26.3681 17.844L23.1641 27.224H29.6441L26.4361 17.844H26.3681Z" fill="#FAFAFA"/>
<path d="M46.264 23.756C45.0811 17.5169 41.9075 11.8294 37.2192 7.54635C32.5308 3.26328 26.5803 0.615488 20.26 0C16.2944 2.69443 13.0476 6.31729 10.8021 10.5532C8.55652 14.7891 7.38037 19.5097 7.37598 24.304C7.37598 24.704 7.37598 25.136 7.40398 25.552C7.55473 27.932 8.00357 30.2837 8.73998 32.552C9.12232 33.7521 9.58743 34.9243 10.132 36.06C10.134 36.0692 10.134 36.0788 10.132 36.088C11.7162 39.172 14.068 41.796 16.9607 43.7072C19.8535 45.6185 23.1897 46.7525 26.648 47H26.78C28.0008 47.0761 29.189 47.425 30.2571 48.021C31.3253 48.617 32.2462 49.445 32.952 50.444C32.952 50.464 32.988 50.48 33.004 50.504C33.3076 50.9638 33.7204 51.3411 34.2056 51.6021C34.6907 51.8632 35.233 51.9999 35.784 52C35.8399 52.0039 35.896 52.0039 35.952 52C36.3962 51.9802 36.8318 51.87 37.232 51.676L37.928 51.316L31.308 32.192C31.2161 31.9234 31.0426 31.6903 30.8116 31.5253C30.5806 31.3603 30.3038 31.2718 30.02 31.272H22.8C22.5152 31.2724 22.2377 31.3616 22.0061 31.5273C21.7745 31.6929 21.6004 31.9267 21.508 32.196L20.516 35.136C20.4246 35.411 20.2475 35.6495 20.0106 35.8165C19.7738 35.9835 19.4897 36.0702 19.2 36.064H16.8C16.6209 36.0644 16.4443 36.0213 16.2855 35.9384C16.1267 35.8556 15.9903 35.7355 15.8881 35.5885C15.7858 35.4414 15.7208 35.2717 15.6984 35.094C15.6761 34.9163 15.6973 34.7358 15.76 34.568L23.84 12.836C23.9183 12.623 24.06 12.4391 24.2459 12.309C24.4318 12.1789 24.6531 12.1087 24.88 12.108H27.924C28.1507 12.1073 28.3721 12.1764 28.5582 12.3059C28.7443 12.4355 28.8859 12.6191 28.964 12.832L40.184 42.996C40.565 42.2326 41.0407 41.5203 41.6 40.876C43.631 38.5667 45.1071 35.8236 45.9155 32.8564C46.7238 29.8891 46.843 26.7764 46.264 23.756Z" fill="#FAFAFA"/>
</svg>
